<?xml version="1.0" encoding="utf-8" standalone="no"?>
<!DOCTYPE svg PUBLIC "-//W3C//DTD SVG 1.1//EN"
  "http://www.w3.org/Graphics/SVG/1.1/DTD/svg11.dtd">
<!-- Created with matplotlib (http://matplotlib.org/) -->
<svg height="280pt" version="1.1" viewBox="0 0 316 280" width="316pt" xmlns="http://www.w3.org/2000/svg" xmlns:xlink="http://www.w3.org/1999/xlink">
 <defs>
  <style type="text/css">
*{stroke-linecap:butt;stroke-linejoin:round;}
  </style>
 </defs>
 <g id="figure_1">
  <g id="patch_1">
   <path d="M 0 280.542136 
L 316.520255 280.542136 
L 316.520255 0 
L 0 0 
z
" style="fill:#ffffff;"/>
  </g>
  <g id="axes_1">
   <g id="patch_2">
    <path d="M 36.48022 271.311068 
L 280.040035 271.311068 
L 280.040035 9.231068 
L 36.48022 9.231068 
z
" style="fill:#ffffff;"/>
   </g>
   <g id="line2d_1">
    <path clip-path="url(#pb7cc2f1016)" d="M 172.826381 14.271068 
L 258.197061 212.152063 
" style="fill:none;stroke:#ff0000;stroke-linecap:square;"/>
   </g>
   <g id="line2d_2">
    <path clip-path="url(#pb7cc2f1016)" d="M 41.164063 192.524274 
L 142.89589 266.271068 
" style="fill:none;stroke:#ff0000;stroke-linecap:square;"/>
   </g>
   <g id="line2d_3">
    <path clip-path="url(#pb7cc2f1016)" d="M 41.164063 192.524274 
L 258.197061 212.152063 
" style="fill:none;stroke:#00ffff;stroke-linecap:square;"/>
   </g>
   <g id="line2d_4">
    <path clip-path="url(#pb7cc2f1016)" d="M 41.164063 192.524274 
L 172.826381 14.271068 
" style="fill:none;stroke:#ff0000;stroke-linecap:square;"/>
   </g>
   <g id="line2d_5">
    <path clip-path="url(#pb7cc2f1016)" d="M 142.89589 266.271068 
L 258.197061 212.152063 
" style="fill:none;stroke:#ff0000;stroke-linecap:square;"/>
   </g>
   <g id="line2d_6">
    <path clip-path="url(#pb7cc2f1016)" d="M 258.197061 212.152063 
L 275.356192 90.513038 
" style="fill:none;stroke:#00ffff;stroke-linecap:square;"/>
   </g>
   <g id="line2d_7">
    <path clip-path="url(#pb7cc2f1016)" d="M 142.89589 266.271068 
L 275.356192 90.513038 
" style="fill:none;stroke:#ff0000;stroke-linecap:square;"/>
   </g>
   <g id="line2d_8">
    <path clip-path="url(#pb7cc2f1016)" d="M 54.481151 69.882063 
L 172.826381 14.271068 
" style="fill:none;stroke:#ff0000;stroke-linecap:square;"/>
   </g>
   <g id="line2d_9">
    <path clip-path="url(#pb7cc2f1016)" d="M 54.481151 69.882063 
L 142.89589 266.271068 
" style="fill:none;stroke:#ff0000;stroke-linecap:square;"/>
   </g>
   <g id="line2d_10">
    <path clip-path="url(#pb7cc2f1016)" d="M 54.481151 69.882063 
L 275.356192 90.513038 
" style="fill:none;stroke:#00ffff;stroke-linecap:square;"/>
   </g>
   <g id="line2d_11">
    <path clip-path="url(#pb7cc2f1016)" d="M 172.826381 14.271068 
L 275.356192 90.513038 
" style="fill:none;stroke:#ff0000;stroke-linecap:square;"/>
   </g>
   <g id="line2d_12">
    <path clip-path="url(#pb7cc2f1016)" d="M 41.164063 192.524274 
L 54.481151 69.882063 
" style="fill:none;stroke:#00ffff;stroke-linecap:square;"/>
   </g>
   <g id="matplotlib.axis_1"/>
   <g id="matplotlib.axis_2"/>
   <g id="PathCollection_1">
    <defs>
     <path d="M 0 7.071068 
C 1.875269 7.071068 3.673985 6.326016 5 5 
C 6.326016 3.673985 7.071068 1.875269 7.071068 0 
C 7.071068 -1.875269 6.326016 -3.673985 5 -5 
C 3.673985 -6.326016 1.875269 -7.071068 0 -7.071068 
C -1.875269 -7.071068 -3.673985 -6.326016 -5 -5 
C -6.326016 -3.673985 -7.071068 -1.875269 -7.071068 0 
C -7.071068 1.875269 -6.326016 3.673985 -5 5 
C -3.673985 6.326016 -1.875269 7.071068 0 7.071068 
z
" id="m43c05c7840" style="stroke:#000000;"/>
    </defs>
    <g>
     <use style="fill:#fec7b8;stroke:#000000;" x="54.481151" xlink:href="#m43c05c7840" y="69.882063"/>
     <use style="fill:#fec7b8;stroke:#000000;" x="258.197061" xlink:href="#m43c05c7840" y="212.152063"/>
     <use style="fill:#fec7b8;stroke:#000000;" x="275.356192" xlink:href="#m43c05c7840" y="90.513038"/>
     <use style="fill:#fec7b8;stroke:#000000;" x="172.826381" xlink:href="#m43c05c7840" y="14.271068"/>
     <use style="fill:#fec7b8;stroke:#000000;" x="142.89589" xlink:href="#m43c05c7840" y="266.271068"/>
     <use style="fill:#fec7b8;stroke:#000000;" x="41.164063" xlink:href="#m43c05c7840" y="192.524274"/>
    </g>
   </g>
   <g id="text_1">
    <!-- ((0, 1), (0, 3)) -->
    <defs>
     <path d="M 31 75.875 
Q 24.46875 64.65625 21.28125 53.65625 
Q 18.109375 42.671875 18.109375 31.390625 
Q 18.109375 20.125 21.3125 9.0625 
Q 24.515625 -2 31 -13.1875 
L 23.1875 -13.1875 
Q 15.875 -1.703125 12.234375 9.375 
Q 8.59375 20.453125 8.59375 31.390625 
Q 8.59375 42.28125 12.203125 53.3125 
Q 15.828125 64.359375 23.1875 75.875 
z
" id="DejaVuSans-28"/>
     <path d="M 31.78125 66.40625 
Q 24.171875 66.40625 20.328125 58.90625 
Q 16.5 51.421875 16.5 36.375 
Q 16.5 21.390625 20.328125 13.890625 
Q 24.171875 6.390625 31.78125 6.390625 
Q 39.453125 6.390625 43.28125 13.890625 
Q 47.125 21.390625 47.125 36.375 
Q 47.125 51.421875 43.28125 58.90625 
Q 39.453125 66.40625 31.78125 66.40625 
z
M 31.78125 74.21875 
Q 44.046875 74.21875 50.515625 64.515625 
Q 56.984375 54.828125 56.984375 36.375 
Q 56.984375 17.96875 50.515625 8.265625 
Q 44.046875 -1.421875 31.78125 -1.421875 
Q 19.53125 -1.421875 13.0625 8.265625 
Q 6.59375 17.96875 6.59375 36.375 
Q 6.59375 54.828125 13.0625 64.515625 
Q 19.53125 74.21875 31.78125 74.21875 
z
" id="DejaVuSans-30"/>
     <path d="M 11.71875 12.40625 
L 22.015625 12.40625 
L 22.015625 4 
L 14.015625 -11.625 
L 7.71875 -11.625 
L 11.71875 4 
z
" id="DejaVuSans-2c"/>
     <path id="DejaVuSans-20"/>
     <path d="M 12.40625 8.296875 
L 28.515625 8.296875 
L 28.515625 63.921875 
L 10.984375 60.40625 
L 10.984375 69.390625 
L 28.421875 72.90625 
L 38.28125 72.90625 
L 38.28125 8.296875 
L 54.390625 8.296875 
L 54.390625 0 
L 12.40625 0 
z
" id="DejaVuSans-31"/>
     <path d="M 8.015625 75.875 
L 15.828125 75.875 
Q 23.140625 64.359375 26.78125 53.3125 
Q 30.421875 42.28125 30.421875 31.390625 
Q 30.421875 20.453125 26.78125 9.375 
Q 23.140625 -1.703125 15.828125 -13.1875 
L 8.015625 -13.1875 
Q 14.5 -2 17.703125 9.0625 
Q 20.90625 20.125 20.90625 31.390625 
Q 20.90625 42.671875 17.703125 53.65625 
Q 14.5 64.65625 8.015625 75.875 
z
" id="DejaVuSans-29"/>
     <path d="M 40.578125 39.3125 
Q 47.65625 37.796875 51.625 33 
Q 55.609375 28.21875 55.609375 21.1875 
Q 55.609375 10.40625 48.1875 4.484375 
Q 40.765625 -1.421875 27.09375 -1.421875 
Q 22.515625 -1.421875 17.65625 -0.515625 
Q 12.796875 0.390625 7.625 2.203125 
L 7.625 11.71875 
Q 11.71875 9.328125 16.59375 8.109375 
Q 21.484375 6.890625 26.8125 6.890625 
Q 36.078125 6.890625 40.9375 10.546875 
Q 45.796875 14.203125 45.796875 21.1875 
Q 45.796875 27.640625 41.28125 31.265625 
Q 36.765625 34.90625 28.71875 34.90625 
L 20.21875 34.90625 
L 20.21875 43.015625 
L 29.109375 43.015625 
Q 36.375 43.015625 40.234375 45.921875 
Q 44.09375 48.828125 44.09375 54.296875 
Q 44.09375 59.90625 40.109375 62.90625 
Q 36.140625 65.921875 28.71875 65.921875 
Q 24.65625 65.921875 20.015625 65.03125 
Q 15.375 64.15625 9.8125 62.3125 
L 9.8125 71.09375 
Q 15.4375 72.65625 20.34375 73.4375 
Q 25.25 74.21875 29.59375 74.21875 
Q 40.828125 74.21875 47.359375 69.109375 
Q 53.90625 64.015625 53.90625 55.328125 
Q 53.90625 49.265625 50.4375 45.09375 
Q 46.96875 40.921875 40.578125 39.3125 
z
" id="DejaVuSans-33"/>
    </defs>
    <g transform="translate(7.2 195.283649)scale(0.1 -0.1)">
     <use xlink:href="#DejaVuSans-28"/>
     <use x="39.013672" xlink:href="#DejaVuSans-28"/>
     <use x="78.027344" xlink:href="#DejaVuSans-30"/>
     <use x="141.650391" xlink:href="#DejaVuSans-2c"/>
     <use x="173.4375" xlink:href="#DejaVuSans-20"/>
     <use x="205.224609" xlink:href="#DejaVuSans-31"/>
     <use x="268.847656" xlink:href="#DejaVuSans-29"/>
     <use x="307.861328" xlink:href="#DejaVuSans-2c"/>
     <use x="339.648438" xlink:href="#DejaVuSans-20"/>
     <use x="371.435547" xlink:href="#DejaVuSans-28"/>
     <use x="410.449219" xlink:href="#DejaVuSans-30"/>
     <use x="474.072266" xlink:href="#DejaVuSans-2c"/>
     <use x="505.859375" xlink:href="#DejaVuSans-20"/>
     <use x="537.646484" xlink:href="#DejaVuSans-33"/>
     <use x="601.269531" xlink:href="#DejaVuSans-29"/>
     <use x="640.283203" xlink:href="#DejaVuSans-29"/>
    </g>
   </g>
   <g id="text_2">
    <!-- ((0, 1), (1, 2)) -->
    <defs>
     <path d="M 19.1875 8.296875 
L 53.609375 8.296875 
L 53.609375 0 
L 7.328125 0 
L 7.328125 8.296875 
Q 12.9375 14.109375 22.625 23.890625 
Q 32.328125 33.6875 34.8125 36.53125 
Q 39.546875 41.84375 41.421875 45.53125 
Q 43.3125 49.21875 43.3125 52.78125 
Q 43.3125 58.59375 39.234375 62.25 
Q 35.15625 65.921875 28.609375 65.921875 
Q 23.96875 65.921875 18.8125 64.3125 
Q 13.671875 62.703125 7.8125 59.421875 
L 7.8125 69.390625 
Q 13.765625 71.78125 18.9375 73 
Q 24.125 74.21875 28.421875 74.21875 
Q 39.75 74.21875 46.484375 68.546875 
Q 53.21875 62.890625 53.21875 53.421875 
Q 53.21875 48.921875 51.53125 44.890625 
Q 49.859375 40.875 45.40625 35.40625 
Q 44.1875 33.984375 37.640625 27.21875 
Q 31.109375 20.453125 19.1875 8.296875 
z
" id="DejaVuSans-32"/>
    </defs>
    <g transform="translate(20.517089 72.641438)scale(0.1 -0.1)">
     <use xlink:href="#DejaVuSans-28"/>
     <use x="39.013672" xlink:href="#DejaVuSans-28"/>
     <use x="78.027344" xlink:href="#DejaVuSans-30"/>
     <use x="141.650391" xlink:href="#DejaVuSans-2c"/>
     <use x="173.4375" xlink:href="#DejaVuSans-20"/>
     <use x="205.224609" xlink:href="#DejaVuSans-31"/>
     <use x="268.847656" xlink:href="#DejaVuSans-29"/>
     <use x="307.861328" xlink:href="#DejaVuSans-2c"/>
     <use x="339.648438" xlink:href="#DejaVuSans-20"/>
     <use x="371.435547" xlink:href="#DejaVuSans-28"/>
     <use x="410.449219" xlink:href="#DejaVuSans-31"/>
     <use x="474.072266" xlink:href="#DejaVuSans-2c"/>
     <use x="505.859375" xlink:href="#DejaVuSans-20"/>
     <use x="537.646484" xlink:href="#DejaVuSans-32"/>
     <use x="601.269531" xlink:href="#DejaVuSans-29"/>
     <use x="640.283203" xlink:href="#DejaVuSans-29"/>
    </g>
   </g>
   <g id="text_3">
    <!-- ((0, 1), (2, 3)) -->
    <g transform="translate(108.931828 269.030443)scale(0.1 -0.1)">
     <use xlink:href="#DejaVuSans-28"/>
     <use x="39.013672" xlink:href="#DejaVuSans-28"/>
     <use x="78.027344" xlink:href="#DejaVuSans-30"/>
     <use x="141.650391" xlink:href="#DejaVuSans-2c"/>
     <use x="173.4375" xlink:href="#DejaVuSans-20"/>
     <use x="205.224609" xlink:href="#DejaVuSans-31"/>
     <use x="268.847656" xlink:href="#DejaVuSans-29"/>
     <use x="307.861328" xlink:href="#DejaVuSans-2c"/>
     <use x="339.648438" xlink:href="#DejaVuSans-20"/>
     <use x="371.435547" xlink:href="#DejaVuSans-28"/>
     <use x="410.449219" xlink:href="#DejaVuSans-32"/>
     <use x="474.072266" xlink:href="#DejaVuSans-2c"/>
     <use x="505.859375" xlink:href="#DejaVuSans-20"/>
     <use x="537.646484" xlink:href="#DejaVuSans-33"/>
     <use x="601.269531" xlink:href="#DejaVuSans-29"/>
     <use x="640.283203" xlink:href="#DejaVuSans-29"/>
    </g>
   </g>
   <g id="text_4">
    <!-- ((0, 3), (1, 2)) -->
    <g transform="translate(138.862319 17.030443)scale(0.1 -0.1)">
     <use xlink:href="#DejaVuSans-28"/>
     <use x="39.013672" xlink:href="#DejaVuSans-28"/>
     <use x="78.027344" xlink:href="#DejaVuSans-30"/>
     <use x="141.650391" xlink:href="#DejaVuSans-2c"/>
     <use x="173.4375" xlink:href="#DejaVuSans-20"/>
     <use x="205.224609" xlink:href="#DejaVuSans-33"/>
     <use x="268.847656" xlink:href="#DejaVuSans-29"/>
     <use x="307.861328" xlink:href="#DejaVuSans-2c"/>
     <use x="339.648438" xlink:href="#DejaVuSans-20"/>
     <use x="371.435547" xlink:href="#DejaVuSans-28"/>
     <use x="410.449219" xlink:href="#DejaVuSans-31"/>
     <use x="474.072266" xlink:href="#DejaVuSans-2c"/>
     <use x="505.859375" xlink:href="#DejaVuSans-20"/>
     <use x="537.646484" xlink:href="#DejaVuSans-32"/>
     <use x="601.269531" xlink:href="#DejaVuSans-29"/>
     <use x="640.283203" xlink:href="#DejaVuSans-29"/>
    </g>
   </g>
   <g id="text_5">
    <!-- ((0, 3), (2, 3)) -->
    <g transform="translate(224.232999 214.911438)scale(0.1 -0.1)">
     <use xlink:href="#DejaVuSans-28"/>
     <use x="39.013672" xlink:href="#DejaVuSans-28"/>
     <use x="78.027344" xlink:href="#DejaVuSans-30"/>
     <use x="141.650391" xlink:href="#DejaVuSans-2c"/>
     <use x="173.4375" xlink:href="#DejaVuSans-20"/>
     <use x="205.224609" xlink:href="#DejaVuSans-33"/>
     <use x="268.847656" xlink:href="#DejaVuSans-29"/>
     <use x="307.861328" xlink:href="#DejaVuSans-2c"/>
     <use x="339.648438" xlink:href="#DejaVuSans-20"/>
     <use x="371.435547" xlink:href="#DejaVuSans-28"/>
     <use x="410.449219" xlink:href="#DejaVuSans-32"/>
     <use x="474.072266" xlink:href="#DejaVuSans-2c"/>
     <use x="505.859375" xlink:href="#DejaVuSans-20"/>
     <use x="537.646484" xlink:href="#DejaVuSans-33"/>
     <use x="601.269531" xlink:href="#DejaVuSans-29"/>
     <use x="640.283203" xlink:href="#DejaVuSans-29"/>
    </g>
   </g>
   <g id="text_6">
    <!-- ((1, 2), (2, 3)) -->
    <g transform="translate(241.39213 93.272413)scale(0.1 -0.1)">
     <use xlink:href="#DejaVuSans-28"/>
     <use x="39.013672" xlink:href="#DejaVuSans-28"/>
     <use x="78.027344" xlink:href="#DejaVuSans-31"/>
     <use x="141.650391" xlink:href="#DejaVuSans-2c"/>
     <use x="173.4375" xlink:href="#DejaVuSans-20"/>
     <use x="205.224609" xlink:href="#DejaVuSans-32"/>
     <use x="268.847656" xlink:href="#DejaVuSans-29"/>
     <use x="307.861328" xlink:href="#DejaVuSans-2c"/>
     <use x="339.648438" xlink:href="#DejaVuSans-20"/>
     <use x="371.435547" xlink:href="#DejaVuSans-28"/>
     <use x="410.449219" xlink:href="#DejaVuSans-32"/>
     <use x="474.072266" xlink:href="#DejaVuSans-2c"/>
     <use x="505.859375" xlink:href="#DejaVuSans-20"/>
     <use x="537.646484" xlink:href="#DejaVuSans-33"/>
     <use x="601.269531" xlink:href="#DejaVuSans-29"/>
     <use x="640.283203" xlink:href="#DejaVuSans-29"/>
    </g>
   </g>
  </g>
 </g>
 <defs>
  <clipPath id="pb7cc2f1016">
   <rect height="262.08" width="243.559815" x="36.48022" y="9.231068"/>
  </clipPath>
 </defs>
</svg>
